<?xml version="1.0" standalone="no"?>
<!DOCTYPE svg PUBLIC "-//W3C//DTD SVG 20010904//EN"
 "http://www.w3.org/TR/2001/REC-SVG-20010904/DTD/svg10.dtd">
<svg version="1.0" xmlns="http://www.w3.org/2000/svg"
 width="640.000000pt" height="641.000000pt" viewBox="0 0 640.000000 641.000000"
 preserveAspectRatio="xMidYMid meet">

<g transform="translate(0.000000,641.000000) scale(0.100000,-0.100000)"
fill="#000000" stroke="none">
<path d="M1832 4532 c-14 -9 -5 -22 90 -126 25 -28 54 -61 65 -73 18 -22 23
-22 298 -25 l281 -3 51 -33 c76 -49 96 -87 101 -194 4 -80 2 -91 -22 -133 -31
-52 -59 -80 -100 -102 -24 -13 -88 -15 -417 -14 l-388 2 -3 -332 c-2 -182 0
-336 4 -342 5 -9 48 -11 176 -8 l22 1 0 228 0 227 266 -3 c277 -3 309 1 414
44 28 12 32 17 20 25 -12 8 -10 9 7 4 17 -5 35 7 87 58 36 36 68 77 72 91 3
14 9 26 13 26 12 0 33 69 25 81 -4 7 -3 9 4 5 14 -8 27 68 26 149 -2 150 -98
309 -235 388 -95 55 -126 59 -499 63 -190 3 -351 1 -358 -4z m711 -39 c-7 -2
-21 -2 -30 0 -10 3 -4 5 12 5 17 0 24 -2 18 -5z m-629 -11 c2 -4 -4 -8 -14 -8
-10 0 -16 4 -14 8 3 4 9 8 14 8 5 0 11 -4 14 -8z m756 -12 c0 -5 -5 -10 -11
-10 -5 0 -7 5 -4 10 3 6 8 10 11 10 2 0 4 -4 4 -10z m75 -121 c11 -17 -1 -21
-15 -4 -8 9 -8 15 -2 15 6 0 14 -5 17 -11z m152 -211 c-3 -7 -5 -2 -5 12 0 14
2 19 5 13 2 -7 2 -19 0 -25z m5 -60 c-7 -7 -12 -8 -12 -2 0 6 3 14 7 17 3 4 9
5 12 2 2 -3 -1 -11 -7 -17z m-5 -100 c-3 -7 -5 -2 -5 12 0 14 2 19 5 13 2 -7
2 -19 0 -25z m-211 -115 c-10 -10 -19 5 -10 18 6 11 8 11 12 0 2 -7 1 -15 -2
-18z m-179 -59 c-3 -3 -12 -4 -19 -1 -8 3 -5 6 6 6 11 1 17 -2 13 -5z m-680
-10 c-3 -3 -12 -4 -19 -1 -8 3 -5 6 6 6 11 1 17 -2 13 -5z m710 -20 c-3 -3
-12 -4 -19 -1 -8 3 -5 6 6 6 11 1 17 -2 13 -5z m88 -102 c-3 -3 -11 0 -18 7
-9 10 -8 11 6 5 10 -3 15 -9 12 -12z m-6 -28 c10 -9 -35 -3 -49 6 -11 8 -7 9
15 4 17 -4 32 -8 34 -10z m-782 -480 c-3 -3 -12 -4 -19 -1 -8 3 -5 6 6 6 11 1
17 -2 13 -5z"/>
<path d="M3032 3833 l3 -688 123 -3 122 -3 0 581 0 580 225 0 225 0 0 110 0
110 -350 0 -350 0 2 -687z"/>
<path d="M2677 3344 c-4 -4 -7 -23 -7 -41 0 -33 1 -34 38 -31 35 3 37 5 37 38
0 32 -3 35 -30 38 -17 2 -34 0 -38 -4z m23 -24 c0 -5 -2 -10 -4 -10 -3 0 -8 5
-11 10 -3 6 -1 10 4 10 6 0 11 -4 11 -10z m26 -14 c0 -15 -5 -21 -10 -16 -5 5
-6 16 -3 24 9 23 15 19 13 -8z"/>
<path d="M2265 3267 c-13 -20 -15 -87 -15 -456 -1 -393 1 -435 16 -452 16 -18
36 -19 260 -19 240 0 243 0 258 22 13 19 16 61 16 260 0 231 -1 238 -20 238
-19 0 -20 -7 -20 -143 0 -98 -4 -147 -12 -155 -17 -17 -429 -17 -446 0 -17 17
-17 649 0 666 8 8 62 12 175 12 l163 0 0 25 0 25 -180 0 c-176 0 -180 0 -195
-23z m373 -824 l-3 -27 -105 2 c-58 0 -108 1 -112 1 -5 1 -8 12 -8 26 l0 25
116 0 115 0 -3 -27z"/>
<path d="M2780 3215 c0 -8 9 -15 20 -15 11 0 20 7 20 15 0 8 -9 15 -20 15 -11
0 -20 -7 -20 -15z"/>
<path d="M2490 3138 l0 -39 38 3 c35 3 37 5 37 38 -1 33 -3 35 -38 37 -37 1
-37 1 -37 -39z"/>
<path d="M2700 3162 c0 -6 6 -13 13 -15 10 -4 10 -6 0 -6 -25 -2 -13 -21 13
-21 21 0 25 4 22 23 -3 22 -48 40 -48 19z"/>
<path d="M2600 3040 c0 -27 3 -30 30 -30 27 0 30 3 30 30 0 27 -3 30 -30 30
-27 0 -30 -3 -30 -30z"/>
<path d="M2700 2930 l0 -41 38 3 c35 3 37 5 37 38 0 33 -2 35 -37 38 l-38 3 0
-41z"/>
<path d="M1662 2922 c-54 -20 -122 -75 -122 -99 0 -7 -3 -13 -8 -13 -13 0 -42
-96 -42 -142 0 -103 63 -214 145 -252 82 -39 204 -37 286 4 45 23 96 81 120
134 59 136 12 294 -105 353 -70 35 -197 42 -274 15z m198 -30 c127 -65 161
-330 55 -435 -61 -60 -161 -61 -238 -2 -65 50 -91 109 -95 218 -6 135 26 200
115 233 46 17 113 11 163 -14z"/>
<path d="M2560 2925 c0 -8 7 -15 15 -15 8 0 15 7 15 15 0 8 -7 15 -15 15 -8 0
-15 -7 -15 -15z"/>
<path d="M3036 2918 c-11 -43 -8 -48 22 -32 16 8 56 14 100 14 l73 0 -3 -240
c-2 -201 -5 -242 -18 -250 -10 -7 8 -10 58 -10 67 0 72 1 58 16 -14 13 -16 50
-16 250 l0 234 59 0 c62 0 110 -13 123 -33 4 -7 8 5 8 26 l0 37 -214 0 c-118
0 -221 3 -229 6 -9 3 -17 -3 -21 -18z"/>
<path d="M4206 2906 c-9 -44 -7 -51 8 -30 12 16 29 20 100 23 l86 3 0 -232 c0
-140 -4 -239 -10 -251 -10 -18 -7 -19 57 -19 47 0 63 3 53 10 -12 8 -16 49
-18 250 l-4 240 69 0 c39 0 79 -6 95 -14 27 -14 28 -14 34 10 4 14 5 27 3 29
-3 2 -109 5 -236 7 l-232 3 -5 -29z"/>
<path d="M4948 2930 c-160 -40 -244 -240 -166 -394 48 -97 134 -146 257 -146
88 0 146 21 199 71 57 55 84 110 90 186 9 118 -33 206 -125 259 -36 22 -59 27
-131 30 -48 2 -104 -1 -124 -6z m137 -21 c52 -14 117 -82 139 -145 9 -27 16
-79 16 -121 0 -164 -97 -259 -228 -224 -99 26 -162 114 -170 237 -8 129 26
210 102 245 47 21 84 23 141 8z"/>
<path d="M494 2914 c24 -23 24 -475 0 -498 -14 -15 -9 -16 56 -16 65 0 70 1
56 16 -14 14 -16 47 -14 252 l3 237 30 3 c64 6 125 -62 125 -140 0 -46 -42
-105 -83 -117 -29 -8 -30 -9 -7 -10 35 -1 110 38 133 70 24 33 33 110 18 147
-7 16 -29 39 -50 50 -34 19 -54 22 -161 22 -110 0 -120 -1 -106 -16z"/>
<path d="M988 2918 c17 -17 17 -489 0 -506 -9 -9 5 -12 62 -11 41 0 68 3 60 6
-26 10 -30 25 -30 121 l0 92 44 0 c43 0 46 -2 82 -55 20 -31 60 -80 88 -110
50 -54 53 -55 106 -55 l55 0 -31 19 c-35 21 -194 206 -194 224 0 7 14 25 30
41 35 35 60 85 60 123 0 41 -35 92 -75 109 -45 18 -276 21 -257 2z m185 -22
c58 -24 83 -88 65 -171 -12 -58 -36 -78 -93 -77 -25 1 -50 4 -55 7 -11 7 -14
238 -3 248 11 11 51 8 86 -7z"/>
<path d="M3620 2920 c12 -7 16 -45 20 -197 5 -175 7 -191 30 -238 34 -67 92
-98 185 -96 75 1 119 17 157 57 46 49 52 78 57 277 5 152 9 190 21 197 10 7
-3 10 -44 10 -52 0 -57 -2 -42 -13 16 -12 18 -30 14 -208 -3 -138 -8 -202 -18
-222 -41 -84 -185 -94 -242 -16 -30 40 -38 92 -38 266 0 134 3 164 16 177 14
15 9 16 -58 16 -50 0 -68 -3 -58 -10z"/>
<path d="M5501 2913 c21 -25 20 -490 -1 -503 -10 -7 7 -10 54 -10 62 0 67 1
55 16 -9 12 -14 46 -14 108 l0 91 41 3 c42 3 42 3 98 -76 31 -44 72 -94 91
-111 31 -27 43 -31 93 -31 57 1 57 1 26 14 -18 8 -68 58 -119 120 l-87 106 36
41 c21 22 41 51 46 65 17 44 12 99 -12 129 -35 44 -75 55 -204 55 -107 0 -115
-1 -103 -17z m208 -28 c36 -31 55 -84 48 -137 -10 -78 -55 -113 -128 -102
l-39 7 0 122 c0 67 3 125 7 128 16 17 83 6 112 -18z"/>
<path d="M2610 2854 c0 -21 4 -25 23 -22 14 2 23 11 25 26 3 18 -1 22 -22 22
-21 0 -26 -5 -26 -26z"/>
<path d="M2474 2776 c-3 -7 -4 -33 -2 -57 l3 -44 55 0 55 0 3 58 3 57 -56 0
c-38 0 -57 -4 -61 -14z"/>
<path d="M2698 2783 c7 -3 16 -2 19 1 4 3 -2 6 -13 5 -11 0 -14 -3 -6 -6z"/>
<path d="M2650 2675 c0 -20 5 -25 25 -25 20 0 25 5 25 25 0 20 -5 25 -25 25
-20 0 -25 -5 -25 -25z"/>
<path d="M912 2238 c-19 -19 -14 -33 6 -15 23 21 41 21 70 1 26 -18 30 -7 5
12 -22 17 -65 18 -81 2z"/>
<path d="M1380 2220 c0 -28 -2 -30 -38 -30 -45 0 -83 -29 -81 -63 1 -20 2 -20
6 -2 16 66 88 75 112 15 8 -20 10 -12 10 43 1 37 -1 67 -4 67 -3 0 -5 -13 -5
-30z"/>
<path d="M1501 2212 c-1 -36 4 -49 28 -71 16 -15 31 -41 34 -57 l4 -29 2 31
c1 22 8 34 26 42 28 13 38 43 32 93 -3 28 -4 26 -5 -13 -2 -39 -7 -51 -27 -64
-38 -25 -72 -7 -80 43 -11 66 -13 69 -14 25z"/>
<path d="M2208 2236 c-32 -24 -47 -65 -37 -99 10 -37 52 -77 80 -77 22 0 83
29 77 36 -3 2 -19 -3 -37 -12 -57 -28 -111 8 -111 74 0 47 30 77 80 77 32 0
46 -6 61 -25 18 -22 19 -23 9 -3 -20 42 -86 57 -122 29z"/>
<path d="M2955 2241 l40 -6 6 -90 5 -90 2 92 2 92 38 4 c20 2 -1 4 -48 4 -56
0 -72 -2 -45 -6z"/>
<path d="M3523 2155 c1 -55 2 -79 4 -53 3 35 10 52 26 63 44 31 78 7 88 -61
l6 -49 2 48 c1 64 -25 92 -79 83 -39 -6 -39 -6 -43 31 -2 21 -4 -7 -4 -62z"/>
<path d="M4216 2243 c35 -7 56 -37 52 -75 -3 -33 -4 -33 -57 -36 l-54 -3 5 45
c3 25 2 43 -3 40 -5 -3 -8 -40 -8 -82 1 -50 4 -66 8 -47 6 28 9 30 56 30 47 0
50 -2 56 -30 4 -19 7 -2 8 48 1 65 -2 80 -19 97 -11 11 -30 19 -42 19 -22 -2
-23 -2 -2 -6z"/>
<path d="M4940 2155 c0 -96 13 -135 17 -48 2 51 20 73 60 73 28 0 43 -27 43
-80 0 -23 4 -39 9 -36 14 9 3 88 -16 109 -14 14 -27 18 -55 14 -39 -5 -43 -1
-39 46 1 9 -3 17 -8 17 -7 0 -11 -35 -11 -95z"/>
<path d="M893 2130 c0 -41 2 -60 4 -42 4 27 9 32 31 33 l27 1 -25 7 c-19 5
-27 16 -31 41 -4 23 -6 9 -6 -40z"/>
<path d="M1048 2125 c-1 -36 0 -65 5 -65 4 0 7 29 7 65 0 36 -2 65 -4 65 -2 0
-6 -29 -8 -65z"/>
<path d="M1116 2174 c-20 -20 -29 -53 -23 -90 3 -22 4 -19 6 14 2 68 56 106
94 64 8 -9 17 -37 20 -62 l4 -45 1 48 c2 35 -3 52 -18 67 -24 24 -63 26 -84 4z"/>
<path d="M1680 2170 c-11 -11 -19 -30 -19 -42 1 -21 2 -21 6 -3 17 69 93 75
113 9 7 -24 8 -25 9 -6 1 29 -33 62 -64 62 -14 0 -34 -9 -45 -20z"/>
<path d="M1832 2149 c-2 -36 3 -50 21 -67 13 -12 30 -22 38 -22 20 0 59 29 58
43 0 8 -2 8 -6 -1 -10 -24 -53 -34 -79 -17 -17 11 -24 26 -27 62 l-3 48 -2
-46z"/>
<path d="M1953 2155 c0 -22 2 -30 4 -17 2 12 2 30 0 40 -3 9 -5 -1 -4 -23z"/>
<path d="M2010 2168 c-15 -16 -20 -34 -18 -67 l1 -46 4 45 c3 34 10 50 31 67
15 13 22 23 15 23 -7 0 -21 -10 -33 -22z"/>
<path d="M2402 2149 c-2 -36 3 -50 21 -67 28 -26 54 -28 78 -6 16 15 20 15 41
0 32 -22 55 -20 83 9 20 19 25 34 24 67 -2 32 -3 35 -6 13 -7 -59 -13 -72 -36
-82 -42 -20 -71 4 -78 62 -4 35 -6 40 -7 18 -4 -74 -43 -108 -89 -78 -16 11
-23 27 -26 62 l-3 48 -2 -46z"/>
<path d="M2705 2170 c-10 -11 -19 -39 -21 -67 l-3 -48 9 48 c14 76 41 95 87
62 16 -11 23 -28 26 -63 l3 -47 2 48 c2 35 -3 52 -18 67 -25 25 -62 26 -85 0z"/>
<path d="M3092 2174 c-29 -20 -29 -67 0 -94 12 -11 24 -17 27 -15 2 3 -5 12
-17 21 -42 29 -19 93 34 94 20 0 44 -17 44 -32 0 -5 -10 -13 -22 -18 -21 -8
-20 -9 10 -9 38 -1 43 18 12 49 -24 24 -57 26 -88 4z"/>
<path d="M3299 2180 c37 -9 51 -24 51 -55 0 -28 -11 -41 -45 -52 -29 -10 -29
-10 12 -9 l43 1 0 43 c0 50 -27 82 -67 81 -26 -1 -26 -2 6 -9z"/>
<path d="M3421 2163 c-14 -17 -19 -34 -15 -47 7 -27 41 -56 63 -55 10 0 7 4
-9 12 -32 15 -40 26 -40 58 0 29 13 44 45 52 19 4 19 5 -2 6 -12 1 -30 -10
-42 -26z"/>
<path d="M3707 2172 c-24 -26 -21 -36 3 -12 23 23 50 26 68 8 17 -17 15 -41
-3 -34 -8 3 -15 1 -15 -4 0 -6 11 -10 25 -10 29 0 32 16 9 48 -19 27 -64 29
-87 4z"/>
<path d="M3870 2170 c-15 -15 -20 -32 -19 -67 l2 -48 6 49 c5 34 14 53 32 67
13 10 18 19 12 19 -7 0 -22 -9 -33 -20z"/>
<path d="M3964 2175 c-8 -19 3 -34 33 -46 20 -7 24 -15 20 -35 -3 -16 -1 -22
5 -16 18 18 4 56 -22 62 -14 3 -26 14 -28 24 -3 15 1 18 22 14 14 -3 23 -1 20
3 -9 14 -44 10 -50 -6z"/>
<path d="M4352 2174 c-18 -13 -22 -24 -21 -67 l2 -52 6 53 c7 52 20 72 52 72
31 0 53 -27 60 -76 l6 -49 2 48 c2 75 -51 111 -107 71z"/>
<path d="M4496 2143 c5 -61 33 -87 81 -78 40 7 46 -15 11 -40 -21 -15 -21 -16
-3 -13 29 5 45 45 45 116 0 69 -16 86 -18 20 -1 -27 -9 -50 -21 -61 -17 -17
-22 -18 -47 -6 -25 12 -29 21 -32 62 -2 26 -7 47 -11 47 -5 0 -7 -21 -5 -47z"/>
<path d="M4661 2148 c-1 -51 14 -74 55 -84 14 -4 30 -2 37 5 14 14 54 15 62 1
11 -18 45 -11 70 15 20 19 25 34 24 67 l-2 43 -6 -47 c-8 -56 -20 -70 -55 -70
-39 0 -55 19 -59 70 l-3 47 -2 -46 c-2 -48 -11 -62 -48 -73 -33 -10 -57 16
-65 70 l-6 49 -2 -47z"/>
<path d="M5130 2168 c-11 -12 -20 -30 -20 -39 0 -20 49 -81 50 -61 0 6 -4 12
-8 12 -5 0 -14 12 -21 26 -10 22 -9 31 4 50 17 26 35 30 66 14 26 -14 24 -38
-3 -43 -17 -3 -15 -5 9 -6 28 -1 30 2 25 22 -12 48 -67 62 -102 25z"/>
<path d="M5291 2164 c-22 -28 -31 -111 -11 -99 6 3 10 27 10 52 0 36 4 46 20
50 11 3 20 9 20 14 0 17 -19 9 -39 -17z"/>
<path d="M5387 2172 c-26 -28 -22 -77 8 -96 14 -9 25 -13 25 -9 0 5 -9 14 -20
21 -46 28 -5 105 47 86 35 -12 40 -32 11 -43 -23 -10 -23 -10 5 -10 22 -1 27
3 27 24 0 43 -72 62 -103 27z"/>
<path d="M2341 2163 c0 -12 -4 -30 -7 -40 -5 -14 -4 -15 5 -7 7 6 11 24 8 40
-3 21 -4 23 -6 7z"/>
<path d="M3231 2129 c0 -16 8 -33 22 -45 22 -19 22 -19 5 1 -9 11 -18 31 -21
45 l-4 25 -2 -26z"/>
<path d="M3687 2113 c13 -37 53 -69 53 -43 0 6 -7 10 -15 10 -9 0 -20 11 -25
25 -11 28 -23 35 -13 8z"/>
<path d="M1370 2100 c0 -6 -11 -15 -25 -22 -19 -9 -29 -8 -50 6 -14 9 -25 12
-25 7 0 -5 13 -14 30 -21 25 -10 34 -10 55 4 22 14 34 36 20 36 -3 0 -5 -5 -5
-10z"/>
<path d="M1689 2081 c29 -26 43 -26 72 -1 l24 20 -31 -17 c-30 -16 -33 -16
-60 1 l-29 17 24 -20z"/>
<path d="M3962 2075 c9 -10 21 -16 28 -13 7 2 -1 10 -16 17 -27 12 -28 11 -12
-4z"/>
</g>
</svg>
